<svg xmlns="http://www.w3.org/2000/svg" height="36" fill="red" viewBox="0 0 16.933 16.933">
    <path
        d="M2921 1202.267a8.467 8.467 0 0 0-8.467 8.466 8.467 8.467 0 0 0 8.467 8.467 8.467 8.467 0 0 0 8.467-8.467 8.467 8.467 0 0 0-8.467-8.466zm1.871 4.232v.001c1.3 0 2.365 1.065 2.365 2.364v1.87c0 1.511-.808 2.91-2.118 3.666a4.309 4.309 0 0 1-2.101.566.495.495 0 0 1-.015 0 4.23 4.23 0 0 1-4.233-4.233v-.935c0-1.3 1.065-2.364 2.365-2.364.586 0 1.123.217 1.537.573a2.374 2.374 0 0 1 2.203-1.508zm0 .99c-.765 0-1.375.61-1.375 1.375v5.074a3.242 3.242 0 0 0 2.75-3.205v-1.87c0-.764-.61-1.374-1.375-1.374zm-3.74.934c-.765 0-1.375.61-1.375 1.375v.935a3.242 3.242 0 0 0 2.75 3.205v-4.14c0-.765-.61-1.375-1.375-1.375z"
        style="stroke-width: 16.9333; stroke-linecap: round; stroke-linejoin: bevel"
        transform="translate(-2912.533 -1202.267)" />
</svg>