<svg xmlns="http://www.w3.org/2000/svg" height="36" viewBox="0 0 16.929 16.933">
    <path
        d="M2890.877 1202.267c-1.996 0-3.713 1.255-4.404 3.014a4.703 4.703 0 0 0-3.074-1.145 4.743 4.743 0 0 0-4.728 4.728v1.87a8.47 8.47 0 0 0 8.462 8.465.99.99 0 0 0 .031 0 8.51 8.51 0 0 0 4.203-1.133 8.47 8.47 0 0 0 4.233-7.332v-3.739c0-2.6-2.128-4.728-4.728-4.728zm0 1.978c1.53 0 2.75 1.22 2.75 2.75v3.738a6.484 6.484 0 0 1-5.5 6.41v-10.148c0-1.53 1.22-2.75 2.75-2.75zm-7.478 1.87c1.53 0 2.75 1.219 2.75 2.749v8.28a6.482 6.482 0 0 1-5.5-6.41v-1.87c0-1.53 1.22-2.75 2.75-2.75z"
        style="stroke-width: 1; stroke-linecap: round; stroke-linejoin: bevel;"
        transform="translate(-2878.671 -1202.267)" />
</svg>